<svg xmlns="http://www.w3.org/2000/svg" xmlns:xlink="http://www.w3.org/1999/xlink" width="1920" zoomAndPan="magnify" viewBox="0 0 1440 809.999993" height="1080" preserveAspectRatio="xMidYMid meet" version="1.0"><defs><clipPath id="c2aeed9fd5"><path d="M 688 289.800781 L 749 289.800781 L 749 424 L 688 424 Z M 688 289.800781 " clip-rule="nonzero"/></clipPath><clipPath id="e0e2b17741"><path d="M 664.496094 354 L 775 354 L 775 447 L 664.496094 447 Z M 664.496094 354 " clip-rule="nonzero"/></clipPath></defs><rect x="-144" width="1728" fill="#ffffff" y="-80.999999" height="971.999992" fill-opacity="1"/><g clip-path="url(#c2aeed9fd5)"><path fill="#ff914d" d="M 718.542969 423.484375 C 701.582031 423.484375 688.425781 409.53125 688.425781 397.527344 L 688.425781 315.757812 C 688.425781 303.753906 701.582031 289.800781 718.542969 289.800781 C 735.503906 289.800781 748.660156 303.753906 748.660156 315.757812 L 748.660156 397.527344 C 748.660156 409.53125 735.503906 423.484375 718.542969 423.484375 Z M 718.542969 300.773438 C 707.621094 300.773438 699.398438 309.863281 699.398438 315.757812 L 699.398438 397.527344 C 699.398438 403.421875 707.621094 412.511719 718.542969 412.511719 C 729.464844 412.511719 737.6875 403.421875 737.6875 397.527344 L 737.6875 315.757812 C 737.6875 309.863281 729.464844 300.773438 718.542969 300.773438 Z M 718.542969 300.773438 " fill-opacity="1" fill-rule="nonzero"/></g><g clip-path="url(#e0e2b17741)"><path fill="#ff914d" d="M 763.914062 359.703125 C 763.914062 372.304688 763.914062 384.90625 763.914062 397.507812 C 763.914062 402.746094 764.167969 407.699219 762.953125 412.855469 C 758.824219 430.371094 734.078125 435.519531 719.402344 436.066406 C 704.375 436.625 687.789062 430.703125 678.609375 418.445312 C 674.089844 412.410156 674.890625 404.71875 674.890625 397.691406 C 674.890625 385.335938 674.890625 372.984375 674.890625 360.628906 C 674.890625 353.996094 664.601562 353.996094 664.601562 360.628906 C 664.601562 376.039062 664.601562 391.445312 664.601562 406.855469 C 664.601562 434.515625 696.796875 445.515625 719.402344 446.355469 C 743.679688 447.261719 772.144531 433.269531 774.199219 406.855469 C 775.410156 391.332031 774.199219 375.28125 774.199219 359.703125 C 774.199219 353.066406 763.914062 353.066406 763.914062 359.703125 Z M 763.914062 359.703125 " fill-opacity="1" fill-rule="nonzero"/></g><path fill="#ff914d" d="M 715.601562 442.109375 C 715.601562 457.933594 715.601562 473.757812 715.601562 489.582031 C 715.601562 496.214844 725.886719 496.214844 725.886719 489.582031 C 725.886719 473.757812 725.886719 457.933594 725.886719 442.109375 C 725.886719 435.472656 715.601562 435.472656 715.601562 442.109375 Z M 715.601562 442.109375 " fill-opacity="1" fill-rule="nonzero"/><path fill="#ff914d" d="M 764.636719 507.5 C 734.777344 507.5 704.921875 507.5 675.066406 507.5 C 676.71875 509.667969 678.371094 511.839844 680.027344 514.007812 C 682.515625 507.292969 685.003906 500.574219 687.488281 493.855469 C 685.835938 495.113281 684.179688 496.375 682.527344 497.632812 C 707.410156 497.632812 732.289062 497.632812 757.171875 497.632812 C 755.515625 496.375 753.863281 495.113281 752.210938 493.855469 C 754.699219 500.574219 757.1875 507.292969 759.675781 514.007812 C 761.960938 520.175781 771.90625 517.507812 769.59375 511.277344 C 767.109375 504.558594 764.621094 497.839844 762.128906 491.121094 C 761.328125 488.949219 759.609375 487.34375 757.171875 487.34375 C 732.289062 487.34375 707.410156 487.34375 682.527344 487.34375 C 680.089844 487.34375 678.371094 488.949219 677.570312 491.121094 C 675.082031 497.839844 672.59375 504.558594 670.105469 511.277344 C 668.925781 514.460938 671.9375 517.789062 675.066406 517.789062 C 704.921875 517.789062 734.777344 517.789062 764.636719 517.789062 C 771.269531 517.789062 771.269531 507.5 764.636719 507.5 Z M 764.636719 507.5 " fill-opacity="1" fill-rule="nonzero"/></svg>